<?xml version="1.0" standalone="no"?>
<!DOCTYPE svg PUBLIC "-//W3C//DTD SVG 20010904//EN"
 "http://www.w3.org/TR/2001/REC-SVG-20010904/DTD/svg10.dtd">
<svg version="1.0" xmlns="http://www.w3.org/2000/svg"
 width="2083.000000pt" height="2083.000000pt" viewBox="0 0 2083.000000 2083.000000"
 preserveAspectRatio="xMidYMid meet">
<metadata>
Created by potrace 1.14, written by Peter Selinger 2001-2017
</metadata>
<g transform="translate(0.000000,2083.000000) scale(0.100000,-0.100000)"
fill="#000000" stroke="none">
<path d="M0 10415 l0 -10415 10415 0 10415 0 0 10415 0 10415 -10415 0 -10415
0 0 -10415z m10025 9839 c53 -19 108 -69 192 -176 65 -83 152 -153 263 -212
157 -83 298 -217 352 -333 27 -56 30 -72 27 -136 -4 -77 -21 -114 -94 -205
-36 -45 -51 -96 -41 -136 3 -14 24 -45 45 -70 56 -64 66 -102 66 -241 -1 -114
-2 -124 -32 -188 -83 -177 -290 -313 -588 -387 l-110 -27 -42 -104 c-155 -382
-438 -787 -763 -1090 -108 -101 -226 -199 -239 -199 -12 0 -43 62 -35 70 5 4
56 48 114 97 139 119 317 303 419 431 178 225 348 516 436 747 21 55 43 105
49 112 6 6 62 24 125 38 371 88 574 254 589 480 5 87 -18 179 -53 207 -36 28
-65 97 -65 154 0 60 26 119 79 182 22 26 45 60 50 75 49 129 -91 327 -309 437
-127 64 -239 158 -346 291 -63 79 -106 108 -172 116 -89 10 -185 -53 -279
-184 -25 -35 -52 -63 -62 -63 -22 0 -41 19 -41 42 0 10 -3 18 -8 18 -13 0
-106 -66 -161 -116 l-53 -48 -127 42 c-165 54 -347 98 -490 118 -155 22 -438
14 -561 -14 -92 -22 -223 -68 -292 -103 -131 -66 -318 -235 -402 -362 -114
-173 -200 -444 -231 -727 -3 -30 -13 -95 -22 -143 -14 -74 -14 -99 -4 -156 17
-96 1 -208 -44 -303 -62 -130 -78 -211 -80 -400 l-1 -168 -29 -30 c-27 -28
-30 -29 -39 -13 -6 11 -11 94 -11 203 0 209 17 299 81 440 39 84 57 180 43
237 -11 49 -10 144 2 208 5 28 17 113 28 190 42 307 137 575 262 740 68 89
224 243 292 288 131 86 263 142 423 178 122 27 430 38 570 20 154 -21 325 -59
472 -106 l143 -46 59 53 c70 64 136 99 199 106 38 4 52 12 79 43 42 48 120
106 169 124 52 19 140 18 198 -1z m-2048 -776 c6 -7 13 -35 17 -63 8 -64 63
-176 118 -241 24 -28 80 -82 125 -120 98 -83 133 -133 169 -239 24 -72 28 -98
32 -255 5 -201 -10 -330 -60 -525 -36 -140 -80 -259 -138 -374 -23 -46 -40
-85 -38 -87 5 -5 82 57 175 142 144 131 262 296 327 458 35 86 55 108 83 90
21 -13 25 -30 58 -224 25 -145 46 -209 71 -217 5 -2 28 12 51 32 61 52 105 43
89 -18 -9 -36 -82 -89 -130 -94 -35 -4 -47 -1 -73 21 -40 34 -59 83 -80 211
l-17 105 -31 -57 c-125 -234 -367 -470 -655 -639 -88 -52 -115 -61 -135 -44
-26 22 -17 41 53 109 207 202 355 609 369 1011 9 264 -31 414 -133 496 -158
128 -257 253 -294 370 -20 65 -26 144 -13 157 11 12 50 8 60 -5z m-1058 -1496
c-27 -133 -33 -149 -76 -215 -72 -109 -241 -273 -337 -327 -108 -60 -168 -79
-251 -79 -119 -1 -197 53 -255 174 -45 95 -62 183 -64 329 -1 112 1 130 17
140 12 8 22 8 35 0 14 -9 18 -32 24 -130 3 -65 14 -150 22 -188 21 -88 70
-180 115 -214 30 -23 44 -27 105 -27 63 0 81 5 156 41 47 23 113 62 147 88
121 91 262 281 344 462 23 51 43 93 44 91 1 -1 -11 -67 -26 -145z m2261 -372
c0 -110 -105 -214 -300 -294 -70 -29 -100 -62 -126 -135 -30 -87 28 -271 153
-492 66 -115 122 -177 267 -294 354 -284 571 -590 691 -972 48 -151 194 -441
285 -568 99 -135 153 -192 530 -552 481 -460 546 -540 791 -978 213 -381 315
-689 268 -812 -14 -37 -86 -111 -184 -187 -127 -99 -727 -506 -1015 -688 -67
-42 -330 -190 -583 -327 -293 -160 -608 -303 -794 -362 -40 -13 -73 -27 -73
-32 0 -17 259 -295 297 -319 31 -19 52 -23 113 -23 91 0 170 12 170 27 0 26
88 194 155 293 350 524 720 798 1241 921 113 27 131 29 359 28 272 0 346 -11
570 -85 234 -77 419 -185 610 -355 279 -248 429 -442 571 -739 279 -584 311
-1201 82 -1582 -50 -83 -200 -237 -315 -322 -267 -199 -905 -560 -1345 -761
-103 -47 -185 -86 -184 -87 5 -5 494 119 566 144 114 39 202 86 340 183 302
210 424 253 611 215 124 -25 216 -69 539 -255 243 -141 314 -177 428 -218 525
-191 994 -298 1506 -346 168 -15 204 -28 176 -60 -17 -22 -78 -20 -269 5 -547
71 -1059 199 -1473 368 -69 28 -99 36 -107 28 -20 -20 -12 -45 28 -91 102
-118 36 -302 -138 -391 -92 -46 -152 -55 -411 -65 -364 -14 -480 -29 -1080
-140 -343 -64 -567 -97 -760 -110 -153 -11 -217 -10 -520 11 -181 13 -273 6
-605 -47 -121 -19 -341 -50 -490 -69 -230 -29 -1382 -158 -1760 -196 -66 -7
-228 -12 -360 -12 -344 0 -599 38 -1070 158 -362 93 -496 137 -680 225 -247
118 -475 310 -547 460 -96 197 -128 413 -93 626 27 169 113 369 217 509 57 77
247 270 401 409 54 48 121 117 150 152 29 35 118 141 198 236 114 134 153 187
173 237 46 113 150 255 301 411 78 80 168 181 202 225 85 113 123 140 318 220
50 20 158 71 240 113 l150 76 145 146 c207 208 566 486 809 629 64 38 224 128
356 201 539 298 748 447 1080 771 93 91 182 174 197 186 l28 21 -93 55 c-113
68 -287 189 -402 280 -138 110 -298 260 -650 608 -322 319 -331 327 -355 314
-91 -47 -504 -74 -643 -41 -259 61 -349 263 -281 630 9 43 14 80 12 81 -2 2
-43 -92 -92 -208 -80 -190 -150 -345 -443 -987 -90 -195 -116 -286 -129 -436
-5 -62 -3 -94 11 -140 15 -54 26 -68 138 -180 129 -128 211 -189 311 -234 87
-39 229 -70 391 -86 84 -8 119 -24 140 -64 l16 -30 50 101 c67 132 174 273
323 423 170 171 380 336 427 336 19 0 31 -21 21 -36 -4 -5 -65 -55 -137 -110
-346 -269 -566 -530 -635 -753 l-17 -53 38 -97 c20 -53 62 -150 92 -216 82
-179 105 -269 71 -282 -37 -14 -126 58 -186 151 -61 95 -80 169 -83 321 -2
140 -16 194 -54 214 -11 6 -67 18 -124 26 -236 33 -347 70 -487 163 -109 72
-307 268 -341 337 -34 70 -38 203 -11 336 24 115 61 204 397 954 136 303 263
597 283 655 l36 105 6 300 c3 165 9 305 13 311 3 6 -16 89 -44 185 -61 215
-91 330 -123 481 -33 156 -71 279 -97 311 -13 18 -40 32 -77 42 -211 58 -342
110 -409 161 -38 29 -82 99 -94 152 -16 72 32 163 101 192 16 7 30 14 30 17 0
2 -13 15 -29 29 -30 25 -57 86 -47 103 4 5 8 40 10 78 7 110 21 145 79 202 31
29 40 33 69 26 18 -4 67 -8 109 -9 61 -2 85 -7 120 -28 38 -23 171 -159 235
-241 12 -15 26 -27 32 -27 16 0 22 -28 9 -38 -7 -6 -26 -14 -42 -18 -17 -4
-44 -18 -60 -30 -17 -13 -58 -36 -90 -51 -54 -24 -75 -28 -210 -33 -155 -6
-190 -15 -227 -56 -24 -28 -37 -88 -28 -130 39 -173 457 -244 903 -153 219 44
477 148 536 214 17 20 63 99 101 175 38 76 79 146 92 154 12 9 42 16 66 16 80
0 243 107 347 229 71 83 95 91 95 31z m2246 -5491 c41 -43 177 -132 257 -168
136 -61 272 -97 587 -156 544 -101 870 -234 1165 -475 364 -297 580 -768 535
-1167 -6 -53 -9 -98 -6 -100 6 -7 57 153 76 237 11 51 21 76 32 78 9 2 69 -19
134 -46 66 -28 209 -82 319 -121 110 -39 210 -76 223 -81 23 -10 30 -34 12
-45 -23 -14 -345 96 -558 192 -57 25 -104 44 -106 42 -2 -2 -11 -38 -20 -79
-22 -92 -70 -219 -124 -327 -66 -130 -213 -341 -294 -422 -80 -80 -212 -174
-237 -169 -38 8 -18 37 84 122 191 159 297 301 353 476 74 228 69 470 -14 720
-118 357 -413 679 -798 872 -214 107 -363 151 -836 247 -453 92 -599 149 -778
298 -55 47 -77 77 -67 93 11 18 31 11 61 -21z m-6253 -9655 c15 -37 27 -71 27
-76 0 -20 -30 -5 -54 27 -42 55 -120 95 -184 95 -48 0 -58 -4 -88 -34 -27 -27
-34 -42 -34 -74 0 -73 30 -93 220 -146 87 -24 144 -66 165 -120 35 -91 -4
-184 -96 -230 -61 -30 -95 -32 -169 -10 -50 15 -81 15 -121 -1 -12 -5 -23 11
-48 71 -42 100 -31 114 40 50 106 -95 208 -123 281 -78 38 24 58 58 58 102 0
71 -42 104 -175 141 -166 45 -215 88 -215 188 0 67 25 111 83 146 40 24 47 25
162 20 l120 -5 28 -66z m6030 0 c15 -37 27 -71 27 -76 0 -20 -30 -5 -54 27
-42 55 -120 95 -184 95 -48 0 -58 -4 -88 -34 -27 -27 -34 -42 -34 -74 0 -73
30 -93 220 -146 87 -24 144 -66 165 -120 35 -91 -4 -184 -96 -230 -61 -30 -95
-32 -169 -10 -50 15 -81 15 -121 -1 -12 -5 -23 11 -48 71 -42 100 -31 114 40
50 106 -95 208 -123 281 -78 38 24 58 58 58 102 0 71 -42 104 -175 141 -166
45 -215 88 -215 188 0 67 25 111 83 146 40 24 47 25 162 20 l120 -5 28 -66z
m3143 52 c66 -31 120 -85 153 -155 22 -48 26 -69 26 -151 0 -84 -3 -102 -28
-152 -117 -238 -432 -232 -546 11 -22 47 -26 70 -26 146 0 78 4 98 27 146 58
118 151 179 273 179 53 0 83 -6 121 -24z m-7571 -41 c51 -114 40 -137 -30 -64
-65 66 -106 83 -208 83 -67 1 -90 -2 -97 -14 -5 -8 -10 -69 -10 -134 l0 -119
59 6 c87 9 110 21 129 67 31 73 42 52 42 -80 0 -94 -3 -120 -14 -120 -7 0 -17
15 -22 33 -12 42 -78 77 -146 77 l-48 0 0 -128 c0 -86 4 -132 12 -140 16 -16
148 -16 201 0 25 8 65 35 102 69 34 32 66 55 72 51 7 -5 1 -33 -19 -84 l-30
-78 -259 0 c-255 0 -305 7 -220 30 27 7 41 17 45 33 3 12 6 131 6 264 0 239 0
242 -22 257 -12 9 -33 16 -45 16 -14 0 -23 6 -23 15 0 13 35 15 251 15 l250 0
24 -55z m1333 38 c2 -8 -6 -13 -20 -13 -13 0 -32 -6 -41 -12 -15 -12 -10 -23
46 -110 34 -54 65 -98 68 -98 14 0 121 169 117 186 -2 11 -16 23 -36 29 -17 5
-32 15 -32 22 0 10 28 13 115 13 93 0 115 -3 115 -14 0 -8 -14 -17 -30 -21
-17 -4 -44 -18 -60 -31 -32 -28 -166 -213 -163 -225 6 -20 173 -266 192 -283
11 -11 38 -22 58 -25 20 -3 38 -12 41 -19 3 -9 -30 -12 -143 -12 -113 0 -146
3 -143 13 3 6 20 14 39 17 19 3 35 11 37 20 1 8 -29 62 -67 119 l-69 103 -54
-73 c-71 -97 -88 -122 -88 -131 0 -15 33 -38 56 -38 15 0 24 -6 24 -15 0 -12
-19 -15 -115 -15 -96 0 -115 3 -115 15 0 10 10 15 27 15 34 0 96 64 180 186
l61 91 -77 119 c-82 126 -113 158 -161 169 -17 4 -30 13 -30 21 0 12 22 14
132 12 94 -2 133 -7 136 -15z m4422 2 c0 -8 -8 -15 -18 -15 -10 0 -28 -7 -40
-16 -21 -14 -22 -23 -22 -130 l0 -114 145 0 145 0 0 120 c0 108 -2 120 -19
130 -11 5 -29 10 -40 10 -12 0 -21 7 -21 15 0 13 18 15 127 13 90 -2 128 -7
131 -15 2 -8 -6 -13 -22 -13 -14 0 -35 -9 -46 -20 -19 -19 -20 -33 -20 -267 0
-137 4 -254 9 -261 5 -8 23 -17 41 -21 19 -3 35 -12 38 -19 3 -9 -28 -12 -127
-12 -110 0 -131 2 -131 15 0 10 10 15 28 15 47 0 52 14 52 147 l0 123 -145 0
-145 0 0 -123 c0 -133 5 -147 52 -147 18 0 28 -5 28 -15 0 -13 -21 -15 -125
-15 -104 0 -125 2 -125 15 0 9 9 15 24 15 54 0 56 10 56 282 0 220 -2 254 -17
270 -9 10 -27 18 -40 18 -14 0 -23 6 -23 15 0 13 21 15 125 15 104 0 125 -2
125 -15z m3442 -18 c70 -31 98 -71 98 -138 0 -61 -31 -107 -94 -138 -39 -20
-69 -25 -152 -29 l-104 -5 0 -116 c0 -78 4 -121 12 -129 7 -7 29 -12 50 -12
27 0 38 -4 38 -15 0 -13 -22 -15 -140 -15 -118 0 -140 2 -140 15 0 10 10 15
29 15 60 0 61 6 61 285 0 251 0 254 -22 269 -12 9 -33 16 -45 16 -15 0 -23 6
-23 16 0 15 19 16 188 12 176 -4 191 -6 244 -31z"/>
<path d="M8080 19142 c18 -24 58 -64 89 -90 31 -26 80 -71 109 -100 29 -29 48
-44 43 -33 -6 11 -41 46 -79 78 -37 31 -96 87 -131 123 -48 49 -56 54 -31 22z"/>
<path d="M8402 18520 c0 -19 2 -27 5 -17 2 9 2 25 0 35 -3 9 -5 1 -5 -18z"/>
<path d="M8391 18354 c0 -11 3 -14 6 -6 3 7 2 16 -1 19 -3 4 -6 -2 -5 -13z"/>
<path d="M8381 18274 c0 -11 3 -14 6 -6 3 7 2 16 -1 19 -3 4 -6 -2 -5 -13z"/>
<path d="M8757 18207 c-2 -12 -8 -31 -11 -42 -7 -18 -6 -18 4 -2 6 9 15 15 21
12 5 -4 9 5 9 19 0 32 -16 42 -23 13z"/>
<path d="M8697 18065 c-9 -19 -15 -35 -12 -35 7 0 37 61 33 66 -3 2 -12 -12
-21 -31z"/>
<path d="M8801 18034 c0 -11 3 -14 6 -6 3 7 2 16 -1 19 -3 4 -6 -2 -5 -13z"/>
<path d="M8821 17914 c0 -11 3 -14 6 -6 3 7 2 16 -1 19 -3 4 -6 -2 -5 -13z"/>
<path d="M8589 17893 c-13 -16 -12 -17 4 -4 9 7 17 15 17 17 0 8 -8 3 -21 -13z"/>
<path d="M8460 17751 c-63 -65 -137 -137 -165 -160 -47 -41 -47 -41 -5 -10 77
58 313 293 288 288 -1 0 -55 -53 -118 -118z"/>
<path d="M8999 17833 c-8 -9 -27 -24 -44 -35 -16 -10 -24 -18 -17 -18 12 0 93
69 81 70 -4 0 -13 -7 -20 -17z"/>
<path d="M8202 17685 c-12 -25 -20 -45 -17 -45 7 0 47 81 43 86 -3 2 -14 -17
-26 -41z"/>
<path d="M8150 17590 c-6 -11 -8 -20 -6 -20 3 0 10 9 16 20 6 11 8 20 6 20 -3
0 -10 -9 -16 -20z"/>
<path d="M8205 17524 l-30 -26 33 22 c17 12 32 23 32 26 0 7 -4 5 -35 -22z"/>
<path d="M8038 17449 c-42 -43 -74 -79 -70 -79 9 0 142 80 142 86 0 3 -4 2
-10 -1 -5 -3 -15 -3 -21 0 -6 4 0 20 16 41 14 19 25 34 23 33 -2 0 -38 -36
-80 -80z"/>
<path d="M7153 17528 c-20 -22 -43 -78 -43 -104 0 -9 8 -10 32 -3 49 14 169
11 223 -5 26 -8 73 -30 104 -49 31 -19 70 -37 86 -41 l30 -7 -35 38 c-19 21
-66 71 -105 111 -76 79 -94 85 -176 61 -32 -10 -42 -9 -63 5 -31 20 -29 20
-53 -6z"/>
<path d="M8830 17340 c-8 -5 -10 -10 -5 -10 6 0 17 5 25 10 8 5 11 10 5 10 -5
0 -17 -5 -25 -10z"/>
<path d="M7113 17319 c-19 -19 -16 -53 6 -73 52 -47 263 -65 355 -30 27 11 51
24 53 29 10 30 -151 73 -307 82 -71 4 -98 2 -107 -8z"/>
<path d="M8764 17301 c0 -15 3 -17 13 -9 7 6 13 14 13 19 0 5 -6 9 -13 9 -7 0
-13 -9 -13 -19z"/>
<path d="M7540 17289 c14 -6 32 -15 41 -19 9 -5 21 -5 28 0 8 5 0 10 -24 14
-20 4 -44 9 -53 12 -9 2 -6 0 8 -7z"/>
<path d="M8702 17268 c-5 -7 -36 -65 -67 -128 -102 -204 -136 -236 -347 -320
-195 -78 -409 -126 -615 -137 -110 -6 -111 -6 -89 -24 55 -44 106 -180 160
-434 23 -107 107 -436 122 -475 3 -9 16 7 34 46 53 109 164 199 312 251 225
80 618 12 982 -169 178 -89 410 -245 528 -356 54 -51 54 -51 -5 78 -123 268
-313 501 -605 742 -213 177 -268 255 -369 530 -52 141 -56 160 -56 238 0 54 6
100 16 128 17 44 17 51 -1 30z"/>
<path d="M8820 16768 c0 -15 42 -101 73 -150 51 -80 120 -151 231 -241 271
-217 450 -429 587 -691 32 -61 59 -108 59 -103 0 4 -25 56 -55 116 -125 251
-312 473 -567 674 -153 121 -211 187 -287 327 -22 41 -41 72 -41 68z"/>
<path d="M7365 16716 c111 -37 124 -39 121 -18 -2 13 -16 18 -62 23 -32 3 -75
9 -94 12 -19 4 -3 -4 35 -17z"/>
<path d="M7648 16713 c7 -3 16 -2 19 1 4 3 -2 6 -13 5 -11 0 -14 -3 -6 -6z"/>
<path d="M8285 16000 c-72 -15 -126 -39 -190 -85 -78 -55 -138 -128 -181 -221
l-33 -70 19 -130 c41 -279 38 -364 -25 -654 -19 -85 -39 -196 -46 -247 -28
-225 45 -379 204 -429 106 -32 403 -29 590 8 l58 11 -28 19 c-15 10 -85 48
-154 83 -159 80 -194 120 -149 165 38 38 106 20 215 -58 28 -20 257 -241 510
-492 253 -250 505 -494 560 -541 253 -217 542 -419 602 -419 10 0 55 19 99 41
76 39 84 41 118 29 35 -11 62 -42 52 -59 -3 -4 -40 -20 -83 -36 -137 -48 -196
-88 -353 -239 -371 -360 -642 -557 -1135 -826 -411 -224 -499 -278 -735 -453
-162 -120 -332 -269 -424 -372 -123 -137 -227 -202 -508 -319 -86 -36 -171
-72 -189 -81 -44 -23 -113 -89 -156 -149 -20 -28 -59 -75 -87 -105 -40 -43
-43 -48 -14 -23 39 32 68 34 68 3 0 -9 -76 -94 -169 -188 -107 -110 -217 -234
-302 -344 -74 -95 -156 -198 -184 -229 -95 -105 -91 -97 -70 -120 26 -29 16
-108 -20 -156 -36 -47 -11 -34 70 36 105 93 215 221 303 355 70 107 115 160
251 299 91 92 188 186 214 207 45 36 77 42 77 15 0 -6 -91 -99 -203 -207 -151
-146 -213 -214 -247 -269 -67 -107 -181 -258 -239 -314 l-50 -49 25 -19 c42
-34 28 -122 -30 -187 l-21 -24 24 13 c37 19 168 148 475 468 222 231 285 304
301 343 25 59 38 74 61 65 39 -15 -16 -161 -104 -276 -27 -36 -106 -132 -175
-215 -99 -120 -121 -151 -106 -153 32 -6 52 -58 41 -103 -9 -37 -9 -38 10 -25
11 8 52 52 90 98 113 133 158 180 248 258 202 175 247 229 230 275 -15 39 11
77 48 73 21 -2 28 -9 30 -30 2 -16 5 -28 8 -28 2 0 141 110 308 245 308 247
364 301 499 475 42 55 95 110 125 132 62 42 183 83 487 162 288 75 375 107
646 232 156 72 643 336 854 462 333 200 1027 674 1274 870 23 19 24 23 19 123
-7 146 -42 244 -188 521 -139 263 -222 407 -312 533 -66 94 -298 332 -770 790
-259 253 -345 355 -446 531 -55 97 -113 224 -133 294 -11 35 -34 65 -109 140
-365 365 -845 583 -1278 579 -70 -1 -145 -5 -167 -9z"/>
<path d="M9780 15545 c0 -5 5 -17 10 -25 5 -8 10 -10 10 -5 0 6 -5 17 -10 25
-5 8 -10 11 -10 5z"/>
<path d="M9827 15396 c-3 -8 0 -19 7 -25 10 -9 12 -6 8 14 -5 29 -8 31 -15 11z"/>
<path d="M7853 15325 c0 -27 2 -38 4 -22 2 15 2 37 0 50 -2 12 -4 0 -4 -28z"/>
<path d="M9891 15245 c-1 -16 109 -238 115 -233 3 3 -22 59 -55 124 -33 66
-60 115 -60 109z"/>
<path d="M8440 14427 c0 -3 46 -38 101 -78 56 -40 104 -80 106 -88 3 -9 23
-29 46 -45 74 -52 -12 36 -123 126 -56 45 -130 94 -130 85z"/>
<path d="M8399 14396 c8 -9 28 -24 45 -33 42 -22 20 5 -26 31 -29 17 -31 18
-19 2z"/>
<path d="M7728 12533 c7 -3 16 -2 19 1 4 3 -2 6 -13 5 -11 0 -14 -3 -6 -6z"/>
<path d="M7778 12523 c7 -3 16 -2 19 1 4 3 -2 6 -13 5 -11 0 -14 -3 -6 -6z"/>
<path d="M7828 12513 c6 -2 18 -2 25 0 6 3 1 5 -13 5 -14 0 -19 -2 -12 -5z"/>
<path d="M7898 12503 c6 -2 18 -2 25 0 6 3 1 5 -13 5 -14 0 -19 -2 -12 -5z"/>
<path d="M8022 12487 c26 -8 55 -20 65 -27 12 -10 11 -7 -3 9 -14 15 -36 24
-65 27 l-44 4 47 -13z"/>
<path d="M8145 12290 c3 -5 8 -10 11 -10 2 0 4 5 4 10 0 6 -5 10 -11 10 -5 0
-7 -4 -4 -10z"/>
<path d="M8161 12150 c-2 -67 61 -215 115 -273 13 -15 27 -27 29 -27 5 0 -48
124 -103 240 -28 59 -41 77 -41 60z"/>
<path d="M11275 11793 c-332 -40 -599 -141 -845 -321 -212 -155 -519 -520
-645 -768 -25 -48 -45 -91 -45 -96 0 -4 22 -8 49 -8 83 0 222 -29 311 -66 115
-46 240 -123 240 -146 0 -25 -17 -23 -92 11 -187 85 -313 92 -813 46 -88 -9
-281 -20 -430 -25 -339 -12 -496 -39 -785 -131 -52 -17 -100 -32 -107 -34 -17
-6 -43 23 -37 39 12 32 256 120 430 155 172 35 260 42 604 51 184 5 337 9 340
10 3 1 -14 7 -38 15 -71 22 -107 53 -249 215 -75 85 -141 156 -148 158 -19 4
-397 -95 -490 -129 -93 -34 -114 -53 -240 -209 -131 -162 -139 -171 -345 -342
-353 -293 -438 -358 -470 -358 -9 0 -24 -14 -34 -32 -31 -51 -83 -104 -212
-214 -74 -63 -163 -152 -228 -228 -122 -143 -175 -190 -240 -212 -82 -28 -146
11 -146 89 0 46 2 49 169 257 l124 155 -284 -281 c-298 -295 -310 -304 -379
-289 -32 7 -90 76 -90 108 0 12 -5 17 -14 14 -51 -20 -82 -18 -120 8 l-38 26
-86 -73 c-204 -170 -428 -422 -498 -560 -67 -133 -106 -383 -86 -550 17 -135
38 -211 87 -313 129 -266 399 -450 871 -589 180 -53 616 -154 809 -186 260
-44 406 -54 680 -47 258 7 297 10 1250 117 744 83 870 99 1200 151 386 61 402
62 705 43 409 -27 625 -8 1260 106 550 99 754 125 1060 135 283 9 349 25 439
102 56 47 84 104 84 170 0 46 -4 55 -36 85 -39 37 -54 88 -39 129 10 25 6 27
-285 189 -162 90 -335 178 -383 197 -110 41 -200 50 -296 30 -105 -22 -183
-63 -344 -178 -164 -118 -250 -166 -363 -204 -68 -23 -362 -95 -1142 -281
-257 -61 -324 -72 -505 -84 -85 -6 -207 -15 -270 -20 -63 -5 -153 -9 -200 -9
-67 -1 -129 -12 -290 -51 -378 -93 -427 -96 -925 -50 -677 62 -922 98 -1355
195 -157 35 -345 44 -459 21 -117 -24 -147 -38 -274 -128 -139 -100 -205 -132
-272 -133 -44 0 -50 3 -53 22 -6 41 370 249 534 296 75 21 95 22 444 21 201 0
453 -6 560 -12 170 -11 891 -60 1360 -92 85 -6 313 -14 506 -17 384 -7 416 -5
824 53 540 76 664 116 1235 399 428 212 942 505 1165 663 124 88 245 209 303
303 181 292 191 768 27 1262 -101 302 -252 557 -490 826 -237 266 -609 490
-935 561 -145 32 -397 48 -520 33z"/>
<path d="M9680 10560 c-9 -6 -10 -10 -3 -10 6 0 15 5 18 10 8 12 4 12 -15 0z"/>
<path d="M8818 10453 c12 -2 32 -2 45 0 12 2 2 4 -23 4 -25 0 -35 -2 -22 -4z"/>
<path d="M8708 10443 c12 -2 30 -2 40 0 9 3 -1 5 -23 4 -22 0 -30 -2 -17 -4z"/>
<path d="M8510 10415 c-63 -14 -146 -36 -185 -50 -79 -29 -66 -27 93 15 62 17
148 36 190 44 42 8 64 14 47 14 -16 0 -82 -10 -145 -23z"/>
<path d="M6709 10243 c-74 -81 -104 -116 -93 -110 13 8 138 147 132 147 -2 0
-20 -17 -39 -37z"/>
<path d="M13351 9964 c0 -11 3 -14 6 -6 3 7 2 16 -1 19 -3 4 -6 -2 -5 -13z"/>
<path d="M7427 9944 c-4 -4 -7 -14 -7 -23 0 -11 3 -12 11 -4 6 6 10 16 7 23
-2 6 -7 8 -11 4z"/>
<path d="M13362 9880 c0 -14 2 -19 5 -12 2 6 2 18 0 25 -3 6 -5 1 -5 -13z"/>
<path d="M13373 9700 c0 -25 2 -35 4 -22 2 12 2 32 0 45 -2 12 -4 2 -4 -23z"/>
<path d="M13361 9534 c0 -11 3 -14 6 -6 3 7 2 16 -1 19 -3 4 -6 -2 -5 -13z"/>
<path d="M6066 9388 c-39 -46 -44 -63 -20 -72 24 -9 74 46 74 83 0 41 -12 39
-54 -11z"/>
<path d="M6703 9313 c-36 -47 -46 -70 -30 -76 22 -7 54 15 71 49 33 71 7 88
-41 27z"/>
<path d="M6266 9301 c-18 -19 -30 -44 -33 -72 l-6 -44 24 16 c34 23 59 61 62
93 3 39 -14 42 -47 7z"/>
<path d="M6205 9289 c-4 -6 -5 -12 -2 -15 2 -3 7 2 10 11 7 17 1 20 -8 4z"/>
<path d="M6015 9280 c3 -5 11 -10 16 -10 6 0 7 5 4 10 -3 6 -11 10 -16 10 -6
0 -7 -4 -4 -10z"/>
<path d="M12734 8664 c-18 -14 -18 -15 4 -4 12 6 22 13 22 15 0 8 -5 6 -26
-11z"/>
<path d="M12654 8614 c-18 -14 -18 -15 4 -4 12 6 22 13 22 15 0 8 -5 6 -26
-11z"/>
<path d="M12604 8584 c-18 -14 -18 -15 4 -4 12 6 22 13 22 15 0 8 -5 6 -26
-11z"/>
<path d="M12554 8554 c-18 -14 -18 -15 4 -4 12 6 22 13 22 15 0 8 -5 6 -26
-11z"/>
<path d="M12473 8509 c-29 -17 -53 -33 -53 -36 0 -5 89 44 105 58 16 16 1 9
-52 -22z"/>
<path d="M12378 8454 c-38 -20 -36 -28 2 -9 17 9 30 18 30 20 0 7 -1 6 -32
-11z"/>
<path d="M12202 8356 c-126 -70 -188 -109 -112 -71 109 55 268 147 248 145 -2
-1 -63 -34 -136 -74z"/>
<path d="M11918 8204 c-71 -35 -128 -66 -128 -69 0 -3 59 24 130 60 72 36 130
67 130 70 0 7 8 11 -132 -61z"/>
<path d="M11700 8095 c-36 -19 -60 -34 -55 -34 6 0 39 15 75 34 36 19 61 34
55 34 -5 0 -39 -15 -75 -34z"/>
<path d="M5271 8044 c0 -11 3 -14 6 -6 3 7 2 16 -1 19 -3 4 -6 -2 -5 -13z"/>
<path d="M11135 7845 c-16 -8 -23 -14 -14 -15 8 0 24 7 35 15 23 18 18 18 -21
0z"/>
<path d="M5330 7805 c0 -5 5 -17 10 -25 5 -8 10 -10 10 -5 0 6 -5 17 -10 25
-5 8 -10 11 -10 5z"/>
<path d="M10788 7753 c7 -3 16 -2 19 1 4 3 -2 6 -13 5 -11 0 -14 -3 -6 -6z"/>
<path d="M7500 7719 c169 -34 413 -70 660 -99 604 -69 673 -75 900 -75 224 0
226 0 420 40 l195 40 -95 2 c-225 5 -615 26 -1170 63 -637 42 -951 60 -1015
59 -25 0 14 -11 105 -30z"/>
<path d="M5380 7700 c6 -11 13 -20 16 -20 2 0 0 9 -6 20 -6 11 -13 20 -16 20
-2 0 0 -9 6 -20z"/>
<path d="M6624 7684 c-18 -14 -18 -15 4 -4 12 6 22 13 22 15 0 8 -5 6 -26 -11z"/>
<path d="M10388 7693 c7 -3 16 -2 19 1 4 3 -2 6 -13 5 -11 0 -14 -3 -6 -6z"/>
<path d="M5470 7575 c13 -14 26 -25 28 -25 3 0 -5 11 -18 25 -13 14 -26 25
-28 25 -3 0 5 -11 18 -25z"/>
<path d="M6325 7518 c-16 -11 -22 -17 -12 -14 10 3 24 6 31 6 7 0 13 7 13 15
0 8 -1 15 -1 14 -1 0 -14 -10 -31 -21z"/>
<path d="M10538 7223 c7 -3 16 -2 19 1 4 3 -2 6 -13 5 -11 0 -14 -3 -6 -6z"/>
<path d="M9098 7033 c7 -3 16 -2 19 1 4 3 -2 6 -13 5 -11 0 -14 -3 -6 -6z"/>
<path d="M6708 7023 c7 -3 16 -2 19 1 4 3 -2 6 -13 5 -11 0 -14 -3 -6 -6z"/>
<path d="M9008 7023 c7 -3 16 -2 19 1 4 3 -2 6 -13 5 -11 0 -14 -3 -6 -6z"/>
<path d="M6748 7013 c7 -3 16 -2 19 1 4 3 -2 6 -13 5 -11 0 -14 -3 -6 -6z"/>
<path d="M6798 7003 c7 -3 16 -2 19 1 4 3 -2 6 -13 5 -11 0 -14 -3 -6 -6z"/>
<path d="M6838 6993 c7 -3 16 -2 19 1 4 3 -2 6 -13 5 -11 0 -14 -3 -6 -6z"/>
<path d="M6888 6983 c7 -3 16 -2 19 1 4 3 -2 6 -13 5 -11 0 -14 -3 -6 -6z"/>
<path d="M6938 6973 c7 -3 16 -2 19 1 4 3 -2 6 -13 5 -11 0 -14 -3 -6 -6z"/>
<path d="M6988 6963 c7 -3 16 -2 19 1 4 3 -2 6 -13 5 -11 0 -14 -3 -6 -6z"/>
<path d="M7038 6953 c6 -2 18 -2 25 0 6 3 1 5 -13 5 -14 0 -19 -2 -12 -5z"/>
<path d="M7098 6943 c6 -2 18 -2 25 0 6 3 1 5 -13 5 -14 0 -19 -2 -12 -5z"/>
<path d="M7168 6933 c7 -3 16 -2 19 1 4 3 -2 6 -13 5 -11 0 -14 -3 -6 -6z"/>
<path d="M7238 6923 c6 -2 18 -2 25 0 6 3 1 5 -13 5 -14 0 -19 -2 -12 -5z"/>
<path d="M7323 6913 c9 -2 25 -2 35 0 9 3 1 5 -18 5 -19 0 -27 -2 -17 -5z"/>
<path d="M7978 6913 c7 -3 16 -2 19 1 4 3 -2 6 -13 5 -11 0 -14 -3 -6 -6z"/>
<path d="M7438 6903 c12 -2 32 -2 45 0 12 2 2 4 -23 4 -25 0 -35 -2 -22 -4z"/>
<path d="M7823 6903 c9 -2 23 -2 30 0 6 3 -1 5 -18 5 -16 0 -22 -2 -12 -5z"/>
<path d="M13856 9813 c-6 -14 -5 -15 5 -6 7 7 10 15 7 18 -3 3 -9 -2 -12 -12z"/>
<path d="M14142 2494 c-116 -59 -157 -325 -74 -479 61 -112 183 -136 277 -54
116 102 108 424 -12 516 -45 35 -140 43 -191 17z"/>
<path d="M15742 2484 c-21 -14 -22 -22 -22 -140 l0 -124 76 0 c124 0 174 40
174 140 0 63 -24 106 -71 124 -51 20 -128 21 -157 0z"/>
</g>
</svg>
